<?xml version="1.0" standalone="no"?>
<!DOCTYPE svg PUBLIC "-//W3C//DTD SVG 20010904//EN"
 "http://www.w3.org/TR/2001/REC-SVG-20010904/DTD/svg10.dtd">
<svg version="1.0" xmlns="http://www.w3.org/2000/svg"
 width="50.000000pt" height="50.000000pt" viewBox="0 0 1080.000000 1080.000000"
 preserveAspectRatio="xMidYMid meet">

<g transform="translate(0.000000,1080.000000) scale(0.100000,-0.100000)"
fill="#000000" stroke="none">
<path d="M5053 10790 c-1174 -82 -2226 -506 -3138 -1264 -155 -129 -512 -486
-641 -641 -668 -803 -1076 -1713 -1218 -2718 -43 -299 -50 -417 -50 -767 0
-350 7 -468 50 -767 142 -1005 550 -1915 1218 -2718 129 -155 486 -512 641
-641 882 -733 1863 -1141 3020 -1256 172 -17 758 -17 930 0 1157 115 2138 523
3020 1256 155 129 512 486 641 641 668 803 1076 1713 1218 2718 43 299 50 417
50 767 0 199 -5 388 -12 465 -115 1157 -523 2138 -1256 3020 -129 155 -486
512 -641 641 -592 492 -1234 839 -1938 1048 -347 103 -651 162 -1027 201 -181
19 -687 28 -867 15z m1005 -1961 c112 -55 154 -210 87 -325 -49 -84 -157 -129
-251 -105 l-48 12 -733 -733 c-403 -403 -729 -736 -725 -739 4 -4 233 -68 510
-141 l502 -135 849 228 c468 125 859 230 870 234 13 4 22 19 26 48 17 98 80
183 171 228 70 34 188 34 258 0 223 -110 229 -430 9 -541 -63 -32 -172 -39
-240 -16 l-48 16 -278 -278 -278 -278 122 -33 122 -32 31 30 c63 61 170 79
252 42 73 -33 134 -126 134 -206 0 -80 -61 -173 -134 -206 -55 -25 -141 -25
-190 0 l-38 20 -979 -662 -978 -662 -1 -58 c0 -135 -92 -229 -225 -231 -183
-2 -293 190 -200 350 49 84 157 129 251 105 l48 -12 733 733 c403 403 729 736
725 739 -4 4 -233 68 -510 142 l-502 134 -850 -228 c-467 -125 -858 -230 -869
-234 -13 -4 -22 -19 -26 -48 -17 -98 -80 -183 -171 -228 -70 -34 -188 -34
-258 0 -223 110 -229 430 -9 541 63 32 172 39 240 16 l48 -16 278 278 278 278
-121 32 -122 33 -36 -32 c-19 -17 -50 -38 -68 -45 -46 -19 -131 -17 -180 5
-73 33 -134 126 -134 206 0 80 61 173 134 206 55 25 141 25 190 0 l38 -20 979
662 978 662 1 58 c0 66 15 108 55 155 67 80 180 100 283 51z m-1770 -221 c47
-28 75 -89 70 -148 -16 -160 -230 -202 -303 -59 -21 40 -19 117 5 156 47 78
146 100 228 51z m1797 -779 c126 -35 198 -164 162 -290 -50 -169 -269 -222
-388 -92 -45 47 -62 93 -62 158 0 153 143 264 288 224z m-1208 -2068 c81 -41
126 -115 126 -206 0 -189 -210 -297 -364 -187 -48 35 -78 83 -91 146 -39 184
161 334 329 247z m1813 -939 c98 -72 94 -216 -8 -275 -20 -12 -52 -19 -82 -19
-170 0 -221 231 -66 303 49 23 117 19 156 -9z m-3420 -827 l0 -135 105 0 105
0 0 -115 0 -115 -105 0 -105 0 0 -255 c0 -310 -6 -295 125 -295 l85 0 0 -129
0 -128 -46 -7 c-82 -11 -209 -6 -262 9 -69 21 -129 69 -166 135 l-31 55 -3
308 -3 307 -45 0 -44 0 0 115 0 115 45 0 45 0 0 110 0 109 33 6 c33 6 246 42
260 44 4 1 7 -60 7 -134z m2710 0 l0 -135 100 0 100 0 0 -115 0 -115 -100 0
-100 0 0 -257 c0 -309 -6 -293 117 -293 l83 0 0 -129 0 -129 -66 -7 c-217 -24
-353 32 -416 170 -22 48 -23 63 -26 348 l-4 297 -39 0 -39 0 0 115 0 115 40 0
40 0 0 110 c0 61 3 110 8 110 4 1 68 11 142 24 74 13 141 24 148 25 9 1 12
-32 12 -134z m-3469 -119 c37 -8 86 -24 109 -36 98 -50 172 -151 186 -252 l7
-48 -142 0 c-141 0 -142 0 -151 24 -15 42 -54 59 -130 60 -85 1 -123 -22 -128
-76 -5 -54 19 -67 150 -84 249 -32 373 -104 409 -238 18 -68 7 -193 -24 -252
-62 -121 -218 -194 -415 -194 -249 1 -406 118 -436 323 l-7 47 150 0 c91 0
151 -4 151 -10 0 -5 13 -25 30 -43 57 -66 184 -75 242 -17 29 30 29 48 -1 83
-26 30 -44 36 -162 52 -195 25 -299 76 -356 172 -26 44 -28 56 -28 148 0 86 4
107 25 150 31 63 92 124 152 153 99 49 247 63 369 38z m1774 -12 c193 -46 338
-190 386 -384 10 -41 14 -137 14 -365 l0 -310 -132 -3 -132 -3 -3 46 -3 45
-45 -30 c-72 -48 -160 -72 -270 -72 -167 0 -288 43 -394 143 -111 103 -157
221 -157 399 0 205 68 348 213 450 141 99 332 130 523 84z m4200 -4 c172 -54
295 -176 347 -345 29 -92 31 -262 4 -350 -75 -249 -284 -387 -565 -373 -102 6
-173 27 -242 73 -21 14 -41 25 -44 25 -3 0 -5 -90 -5 -200 l0 -200 -136 0
-136 0 4 478 4 477 27 79 c69 197 213 318 425 356 78 15 239 4 317 -20z
m-3005 -124 l0 -133 -49 8 c-88 14 -204 -11 -249 -54 -56 -52 -57 -56 -62
-422 l-5 -340 -142 -3 -143 -3 0 531 0 530 130 0 130 0 0 -51 0 -51 39 35 c22
19 48 40 60 46 42 23 129 40 209 40 l82 1 0 -134z m1272 -204 l3 -328 26 -49
c18 -35 39 -59 74 -80 45 -28 56 -30 139 -30 105 0 157 19 225 81 81 72 81 72
81 424 l0 310 145 0 145 0 0 -525 0 -525 -135 0 c-126 0 -135 1 -135 19 0 49
-8 50 -78 15 -90 -46 -169 -64 -272 -64 -273 1 -457 131 -506 359 -10 49 -14
151 -14 394 l0 327 149 0 150 0 3 -328z m-2277 -1100 l40 -8 -3 -49 c-1 -27
-4 -50 -6 -53 -3 -2 -46 -5 -97 -5 -60 -1 -94 -6 -96 -14 -2 -6 27 -30 65 -52
83 -48 102 -74 102 -139 0 -96 -70 -154 -195 -160 -39 -2 -90 1 -113 8 -42 11
-43 11 -37 48 11 65 8 63 101 61 63 -2 88 1 94 11 13 21 4 32 -59 73 -86 56
-111 103 -91 176 20 74 82 109 195 110 33 0 78 -3 100 -7z m384 1 c21 -5 23
-10 17 -51 -3 -25 -12 -49 -19 -54 -6 -4 -44 -8 -84 -8 -76 0 -77 0 -87 -42
l-6 -27 82 -3 83 -3 -3 -40 c-5 -59 -14 -65 -102 -65 l-77 0 -7 -32 c-8 -42 3
-48 92 -48 l72 0 -6 -42 c-9 -60 -24 -68 -120 -68 -92 0 -122 8 -153 41 -27
29 -27 76 0 227 27 153 48 192 115 212 34 10 169 12 203 3z m374 -8 c14 -6 16
-14 11 -44 -11 -62 -13 -63 -110 -65 -111 -1 -115 -14 -22 -69 98 -59 120
-116 77 -203 -16 -34 -32 -49 -75 -70 -49 -24 -62 -26 -144 -22 -50 2 -95 9
-102 16 -8 8 -8 24 -2 54 l9 43 80 0 c125 1 137 22 48 83 -32 22 -66 49 -76
60 -38 42 -31 147 13 187 37 34 91 46 185 41 50 -2 98 -8 108 -11z m337 -7 c0
-32 -78 -459 -85 -466 -3 -3 -10 -1 -15 4 -6 6 4 88 30 234 23 124 43 231 45
238 7 21 25 13 25 -10z m185 2 c0 -8 -12 -17 -28 -20 l-29 -5 30 -22 30 -22 7
44 c5 35 10 45 25 45 18 0 19 -5 13 -47 -10 -75 -18 -98 -36 -101 -12 -2 -17
3 -17 19 0 21 -1 21 -12 6 -15 -20 -68 -31 -87 -18 -18 11 -5 31 20 31 22 0
26 18 4 26 -24 10 -29 43 -9 65 22 24 89 23 89 -1z m-315 -20 c0 -27 -6 -33
-66 -60 -37 -16 -71 -30 -76 -30 -9 0 -2 58 13 98 8 19 15 22 69 22 60 0 60 0
60 -30z m525 9 c4 -13 2 -25 -5 -29 -9 -5 -11 -20 -7 -45 4 -26 2 -38 -9 -42
-26 -10 -45 17 -38 52 3 19 1 35 -5 39 -6 4 -11 2 -11 -3 0 -6 -7 -11 -16 -11
-14 0 -14 -1 0 -16 20 -20 20 -29 0 -49 -21 -21 -68 -16 -72 8 -3 12 3 17 20
17 20 1 21 2 6 11 -44 25 -8 75 46 66 24 -4 39 -1 47 9 17 20 37 17 44 -7z
m93 -11 c7 -7 13 -21 13 -32 1 -14 4 -11 8 9 6 29 8 30 69 32 51 1 65 -2 74
-16 11 -17 12 -17 29 0 21 21 77 25 84 7 3 -7 2 -33 -3 -58 -7 -42 -9 -45 -42
-46 -41 -2 -60 10 -61 40 -1 15 -3 12 -8 -9 -4 -18 -14 -31 -25 -33 -17 -4
-18 1 -13 37 7 53 -8 54 -17 0 -5 -31 -10 -40 -24 -37 -13 3 -17 13 -15 43 l2
40 -13 -40 c-15 -47 -46 -61 -46 -21 0 23 -4 26 -32 25 -32 -2 -32 -2 -5 -6
34 -5 31 -24 -6 -37 -34 -12 -57 7 -57 47 0 53 55 88 88 55z m-632 -95 c-3
-10 -17 -88 -32 -173 -14 -85 -31 -161 -36 -167 -12 -15 -114 -18 -123 -4 -4
8 41 292 48 297 13 10 125 63 135 64 8 0 11 -7 8 -17z m379 -83 c3 -5 3 -21
-1 -35 -6 -22 -11 -25 -55 -25 -27 0 -49 -2 -49 -4 0 -2 -3 -11 -6 -20 -5 -13
2 -16 45 -16 53 0 54 -1 45 -37 -5 -20 -13 -23 -54 -23 l-48 0 -9 -52 -8 -53
-43 -3 c-38 -3 -43 -1 -39 15 3 10 13 61 22 113 17 98 26 118 60 138 24 14
131 16 140 2z m115 -13 c0 -17 -9 -27 -37 -37 -21 -8 -42 -16 -46 -18 -7 -4
-3 29 9 66 2 6 19 12 39 12 30 0 35 -3 35 -23z m215 -12 c0 -29 -2 -30 -52
-33 -45 -3 -53 -6 -53 -23 0 -16 7 -19 46 -19 44 0 45 -1 42 -27 -3 -26 -7
-28 -53 -33 -42 -4 -50 -8 -53 -27 -3 -21 1 -23 43 -23 45 0 46 -1 43 -27 -4
-37 -58 -52 -118 -34 -51 15 -56 36 -40 144 11 67 18 87 41 110 26 26 34 28
91 25 63 -3 63 -3 63 -33z m122 5 c7 -14 18 -38 23 -53 l10 -28 43 53 c46 57
91 75 103 43 4 -9 -1 -62 -11 -118 -26 -158 -22 -147 -67 -147 -33 0 -38 3
-34 18 3 9 8 40 12 67 l7 50 -22 -27 c-28 -35 -56 -36 -74 -1 -14 26 -14 25
-27 -40 l-12 -67 -40 0 c-33 0 -39 3 -34 18 2 9 12 64 21 122 10 58 22 113 27
123 14 26 59 18 75 -13z m396 18 c11 -9 15 -21 11 -35 -6 -20 -13 -23 -60 -23
-30 0 -54 -4 -54 -8 0 -5 20 -22 45 -40 40 -28 45 -36 45 -70 0 -50 -22 -79
-71 -92 -45 -13 -129 -4 -129 14 1 46 11 55 64 53 63 -2 66 11 10 51 -23 17
-44 42 -48 57 -8 33 12 76 44 92 32 16 121 17 143 1z m-743 -75 c0 -10 -7 -57
-16 -105 l-16 -88 -39 0 c-25 0 -39 5 -39 13 0 18 27 158 31 161 9 7 65 35 72
36 4 0 7 -8 7 -17z"/>
<path d="M4560 7590 c-475 -323 -705 -484 -705 -496 0 -14 33 -26 168 -62
l169 -45 541 541 c298 298 540 542 537 541 -3 0 -322 -216 -710 -479z"/>
<path d="M6443 6777 c-392 -105 -713 -194 -713 -197 0 -3 138 -43 308 -88 169
-45 355 -95 413 -111 l107 -28 308 308 c170 170 304 309 299 308 -6 0 -331
-87 -722 -192z"/>
<path d="M3934 6497 c-170 -170 -302 -308 -294 -305 8 2 333 90 723 194 389
104 707 191 707 194 0 3 -138 43 -307 88 -170 45 -356 95 -414 111 l-107 28
-308 -310z"/>
<path d="M6065 5629 c-473 -475 -530 -535 -460 -487 44 30 365 247 713 483
429 289 632 433 630 443 -2 10 -52 28 -163 58 -88 24 -165 44 -170 44 -6 0
-253 -244 -550 -541z"/>
<path d="M4022 3602 c-71 -26 -136 -90 -159 -156 -25 -73 -22 -177 6 -242 89
-204 393 -213 509 -16 24 42 27 57 27 137 0 101 -24 171 -73 218 -70 67 -212
94 -310 59z"/>
<path d="M8164 3604 c-61 -22 -118 -75 -145 -136 -31 -70 -34 -205 -5 -258
111 -210 424 -215 517 -8 18 41 24 71 24 133 0 179 -106 286 -283 284 -37 0
-86 -7 -108 -15z"/>
<path d="M6277 2363 c-10 -9 -8 -33 2 -33 5 0 11 9 14 20 5 20 -3 26 -16 13z"/>
</g>
</svg>
