<?xml version="1.0" encoding="UTF-8"?>
<svg id="Camada_1" xmlns="http://www.w3.org/2000/svg" version="1.1" viewBox="0 0 1080 1080">
  <!-- Generator: Adobe Illustrator 29.4.0, SVG Export Plug-In . SVG Version: 2.1.0 Build 152)  -->
  <defs>
    <style>
      .st0 {
        fill: #fff;
      }

      .st1 {
        fill: #553882;
      }
    </style>
  </defs>
  <g>
    <path class="st1" d="M540,1079.5c-72.83,0-143.49-14.26-210-42.4-64.24-27.17-121.94-66.07-171.49-115.62-49.55-49.55-88.45-107.24-115.62-171.49C14.76,683.49.5,612.83.5,540s14.26-143.49,42.4-210c27.17-64.24,66.07-121.94,115.62-171.49,49.55-49.55,107.24-88.45,171.49-115.62C396.51,14.76,467.17.5,540,.5s143.49,14.26,210,42.4c64.24,27.17,121.94,66.07,171.49,115.62s88.45,107.24,115.62,171.49c28.13,66.51,42.4,137.17,42.4,210s-14.26,143.49-42.4,210c-27.17,64.24-66.07,121.94-115.62,171.49s-107.24,88.45-171.49,115.62c-66.51,28.13-137.17,42.4-210,42.4Z"/>
    <path d="M540,1c72.76,0,143.35,14.25,209.8,42.36,31.94,13.51,62.74,30.23,91.56,49.7,28.54,19.28,55.38,41.43,79.77,65.82s46.54,51.23,65.82,79.77c19.47,28.81,36.19,59.62,49.7,91.56,28.11,66.45,42.36,137.04,42.36,209.8s-14.25,143.35-42.36,209.8c-13.51,31.94-30.23,62.74-49.7,91.56-19.28,28.54-41.43,55.38-65.82,79.77s-51.23,46.54-79.77,65.82c-28.81,19.47-59.62,36.19-91.56,49.7-66.45,28.11-137.04,42.36-209.8,42.36s-143.35-14.25-209.8-42.36c-31.94-13.51-62.74-30.23-91.56-49.7-28.54-19.28-55.38-41.43-79.77-65.82s-46.54-51.23-65.82-79.77c-19.47-28.81-36.19-59.62-49.7-91.56C15.25,683.35,1,612.77,1,540s14.25-143.35,42.36-209.8c13.51-31.94,30.23-62.74,49.7-91.56,19.28-28.54,41.43-55.38,65.82-79.77s51.23-46.54,79.77-65.82c28.81-19.47,59.62-36.19,91.56-49.7C396.65,15.25,467.23,1,540,1h0M540,0h0C241.77,0,0,241.77,0,540h0c0,298.23,241.77,540,540,540h0c298.23,0,540-241.77,540-540h0C1080,241.77,838.23,0,540,0h0Z"/>
  </g>
  <path class="st0" d="M819.01,477.81l-.05-.07-232.35,62.25,134.24,35.98,98.15-98.16ZM297.35,457.3c.45,1.77.76,3.59.92,5.44l53.62,14.36,175.78-175.79-230.32,155.99ZM782.65,622.7c-.45-1.78-.76-3.58-.92-5.43l-53.62-14.37-175.79,175.77,230.33-155.98ZM463.66,824.92c2.12.57,4.14,1.31,6.05,2.21l231.45-231.45-161.16-43.2-272.72,73.09c0,4.01-.51,8.1-1.6,12.16-6.69,24.98-32.36,39.78-57.34,33.1-24.97-6.69-39.79-32.36-33.1-57.33,6.69-24.98,32.36-39.8,57.33-33.1,4.06,1.08,7.85,2.68,11.32,4.68l88.28-88.28-40.16-10.76c-8.23,11.73-23.2,17.66-37.85,13.74-18.74-5.02-29.86-24.29-24.84-43.03,5.03-18.74,24.28-29.85,43.03-24.84,4.26,1.14,8.13,3.03,11.5,5.46l307.05-207.93c-1.51-5.81-1.58-12.06.09-18.27,5.12-19.12,24.78-30.47,43.91-25.35,19.13,5.14,30.48,24.79,25.35,43.92-5.12,19.12-24.78,30.47-43.91,25.35-2.12-.57-4.14-1.32-6.05-2.21l-231.45,231.45,161.16,43.17,272.72-73.07c0-4.02.51-8.1,1.6-12.18,6.7-24.97,32.37-39.79,57.34-33.09,24.97,6.68,39.79,32.35,33.1,57.33-6.7,24.97-32.36,39.78-57.34,33.1-4.06-1.1-7.85-2.68-11.33-4.69l-88.28,88.28,40.16,10.76c8.24-11.73,23.2-17.67,37.85-13.74,18.75,5.03,29.86,24.29,24.84,43.02-5.02,18.74-24.29,29.87-43.03,24.85-4.26-1.15-8.12-3.02-11.49-5.45l-307.05,207.93c1.51,5.8,1.58,12.05-.09,18.26-5.12,19.13-24.78,30.48-43.91,25.34-19.12-5.12-30.48-24.78-25.35-43.91,5.13-19.13,24.78-30.47,43.91-25.34ZM358.71,220.06c13.27,3.55,21.14,17.2,17.59,30.46-3.55,13.27-17.2,21.14-30.46,17.59-13.27-3.55-21.15-17.19-17.59-30.46,3.55-13.26,17.19-21.14,30.46-17.59ZM721.28,859.94c-13.27-3.55-21.15-17.19-17.59-30.47,3.55-13.26,17.19-21.14,30.46-17.59,13.27,3.55,21.15,17.2,17.59,30.47-3.55,13.27-17.19,21.14-30.46,17.59ZM432.88,734.77c-19.13-5.14-30.48-24.8-25.35-43.92,5.12-19.12,24.78-30.47,43.91-25.35,19.13,5.13,30.47,24.79,25.35,43.91-5.12,19.13-24.78,30.48-43.91,25.36ZM647.11,345.24c19.13,5.12,30.48,24.78,25.35,43.91-5.12,19.13-24.79,30.48-43.91,25.34-19.13-5.12-30.47-24.78-25.35-43.91,5.13-19.13,24.78-30.47,43.91-25.34ZM261.02,602.26l232.35-62.26-134.24-35.97-98.15,98.15.04.08Z"/>
</svg>